<?xml version="1.0" encoding="UTF-8" standalone="no"?>
<!DOCTYPE svg PUBLIC "-//W3C//DTD SVG 1.1//EN" "http://www.w3.org/Graphics/SVG/1.1/DTD/svg11.dtd">
<svg width="100%" height="100%" viewBox="0 0 600 600" version="1.1" xmlns="http://www.w3.org/2000/svg" xmlns:xlink="http://www.w3.org/1999/xlink" xml:space="preserve" xmlns:serif="http://www.serif.com/" style="fill-rule:evenodd;clip-rule:evenodd;stroke-linejoin:round;stroke-miterlimit:2;">
    <g transform="matrix(5.28431,0,0,5.28431,-727.799,-704.02)">
        <path d="M153.14,241C161.3,222.499 176.772,210 194.5,210C212.228,210 227.7,222.499 235.86,241L153.14,241Z" style="fill:rgb(79,195,247);"/>
        <path d="M205.781,211.781C198.558,209.358 191.055,209.301 183.219,211.781L183.219,213.719C183.219,219.945 188.274,225 194.5,225C200.726,225 205.781,219.945 205.781,213.719L205.781,211.781Z" style="fill:rgb(8,89,151);"/>
        <g transform="matrix(1,0,0,1,3,94)">
            <path d="M201,105.5C201,100.257 196.743,96 191.5,96C186.257,96 182,100.257 182,105.5L182,118.5C182,123.743 186.257,128 191.5,128C196.743,128 201,123.743 201,118.5L201,105.5Z" style="fill:rgb(255,152,0);"/>
        </g>
        <g transform="matrix(2.16,0,0,2.30769,-510.74,-322.442)">
            <path d="M326.5,204.267C333.399,204.267 340.288,211.942 339,219C337.691,226.175 332.78,232.157 326.5,232C320.267,231.844 315.556,225.811 314,219C312.402,212.005 319.601,204.267 326.5,204.267Z" style="fill:rgb(255,183,77);"/>
        </g>
        <path d="M220.719,186.679L221.838,178.999C225.67,178.314 222.717,185.364 220.719,186.679Z" style="fill:rgb(254,166,38);"/>
        <g transform="matrix(-1,0,0,1,389.035,-1.84446)">
            <path d="M221.001,187.05L221.838,178.999C226.794,177.64 223.457,185.461 221.001,187.05Z" style="fill:rgb(254,166,38);"/>
        </g>
        <g transform="matrix(1.26446,0,0,1.25365,-48.4545,-45.4039)">
            <ellipse cx="185.109" cy="180.971" rx="1.891" ry="1.971" style="fill:rgb(154,99,39);"/>
        </g>
        <g transform="matrix(1.26446,0,0,1.25365,-30.6383,-45.4513)">
            <ellipse cx="185.109" cy="180.971" rx="1.891" ry="1.971" style="fill:rgb(154,99,39);"/>
        </g>
        <path d="M194.5,141C173.636,141.676 168.077,156.6 167.014,171C167.014,171 166.561,176.163 167.059,176.829C167.977,178.059 176,167 176,167C188.372,166.787 197.058,163.91 204,157L218.642,166.048L221.838,179C225.602,165.257 217.334,140.26 194.5,141Z" style="fill:rgb(66,66,66);"/>
        <path d="M181.932,143.764C186.7,141.407 192.006,139.059 198,139C199.743,139.038 200.903,142.333 199,142.984L181.932,143.764Z" style="fill:rgb(66,66,66);"/>
    </g>
</svg>
