<?xml version="1.0" encoding="UTF-8" standalone="no"?>
<!DOCTYPE svg PUBLIC "-//W3C//DTD SVG 1.1//EN" "http://www.w3.org/Graphics/SVG/1.1/DTD/svg11.dtd">
<svg width="100%" height="100%" viewBox="0 0 64 64" version="1.1" xmlns="http://www.w3.org/2000/svg" xmlns:xlink="http://www.w3.org/1999/xlink" xml:space="preserve" xmlns:serif="http://www.serif.com/" style="fill-rule:evenodd;clip-rule:evenodd;stroke-linejoin:round;stroke-miterlimit:2;">
    <g transform="matrix(24.874,0,0,24.8779,-1033.49,-474.294)">
        <path d="M43.859,20.467L43.716,20.429C43.724,20.364 43.724,20.296 43.716,20.231L43.859,20.192C43.889,20.184 43.906,20.155 43.898,20.125L43.856,19.965C43.848,19.936 43.817,19.918 43.788,19.926L43.645,19.965C43.619,19.905 43.586,19.847 43.546,19.792L43.65,19.688C43.672,19.666 43.672,19.632 43.65,19.611L43.534,19.494C43.512,19.472 43.478,19.472 43.456,19.494L43.352,19.598C43.297,19.558 43.239,19.526 43.179,19.499L43.218,19.356C43.226,19.327 43.208,19.296 43.179,19.289L43.02,19.247C42.99,19.239 42.96,19.256 42.952,19.285L42.914,19.428C42.848,19.421 42.781,19.421 42.715,19.428L42.677,19.285C42.669,19.256 42.639,19.239 42.609,19.247L42.45,19.289C42.421,19.296 42.403,19.327 42.411,19.356L42.449,19.499C42.39,19.526 42.332,19.558 42.277,19.598L42.173,19.494C42.151,19.472 42.116,19.472 42.095,19.494L41.979,19.611C41.957,19.632 41.957,19.666 41.979,19.688L42.083,19.792C42.043,19.847 42.01,19.905 41.983,19.965L41.841,19.926C41.812,19.918 41.781,19.936 41.773,19.965L41.731,20.125C41.723,20.155 41.74,20.184 41.77,20.192L41.913,20.231C41.905,20.296 41.905,20.364 41.913,20.429L41.77,20.467C41.74,20.475 41.723,20.505 41.731,20.535L41.773,20.695C41.781,20.724 41.812,20.741 41.841,20.733L41.978,20.697L42.198,20.475C42.147,20.266 42.203,20.035 42.367,19.872C42.548,19.69 42.81,19.641 43.036,19.721L42.555,20.203C42.603,20.393 42.751,20.542 42.941,20.589L43.423,20.109C43.504,20.334 43.454,20.596 43.273,20.777C43.109,20.941 42.879,20.997 42.669,20.946L42.448,21.167L42.411,21.304C42.403,21.333 42.421,21.363 42.45,21.372L42.609,21.414C42.639,21.421 42.669,21.405 42.677,21.374L42.715,21.232C42.781,21.239 42.848,21.239 42.914,21.232L42.952,21.374C42.96,21.405 42.99,21.421 43.02,21.414L43.179,21.372C43.208,21.363 43.226,21.333 43.218,21.304L43.179,21.161C43.239,21.134 43.297,21.102 43.352,21.062L43.456,21.166C43.478,21.188 43.512,21.188 43.534,21.166L43.65,21.049C43.672,21.028 43.672,20.993 43.65,20.972L43.546,20.868C43.586,20.813 43.619,20.755 43.645,20.695L43.788,20.733C43.817,20.741 43.848,20.724 43.856,20.695L43.898,20.535C43.906,20.505 43.889,20.475 43.859,20.467Z" style="fill:rgb(78,90,105);fill-rule:nonzero;"/>
    </g>
</svg>
